<?xml version="1.0" encoding="utf-8"?>
<!-- Generator: Adobe Illustrator 27.0.1, SVG Export Plug-In . SVG Version: 6.00 Build 0)  -->
<svg version="1.1" id="Layer_1" xmlns="http://www.w3.org/2000/svg" xmlns:xlink="http://www.w3.org/1999/xlink" x="0px" y="0px"
	 viewBox="0 0 311.11 103.11" style="enable-background:new 0 0 311.11 103.11;" xml:space="preserve">
<style type="text/css">
	.st0{fill:#142239;}
	.st1{fill:#E64125;}
</style>
<path class="st0" d="M61.5,45.64c-0.92-14.83-12.99-26.91-27.83-27.83C16.36,16.74,1.99,30.46,1.99,47.54v52.02
	c0,1.73,2.29,2.36,3.17,0.86l13.9-23.6c0.62-1.05,1.89-1.51,3.04-1.11l0,0c3.03,1.04,6.29,1.61,9.67,1.61
	C48.85,77.33,62.58,62.95,61.5,45.64z M31.77,62.29c-8.14,0-14.74-6.61-14.74-14.75s6.6-14.74,14.74-14.74
	c8.15,0,14.75,6.6,14.75,14.74S39.92,62.29,31.77,62.29z"/>
<path class="st0" d="M265.59,17.76c-16.45,0-29.79,13.34-29.79,29.79c0,16.45,13.34,29.79,29.79,29.79
	c16.45,0,29.79-13.34,29.79-29.79C295.37,31.09,282.04,17.76,265.59,17.76z M265.59,62.29c-8.14,0-14.74-6.6-14.74-14.74
	c0-8.14,6.6-14.74,14.74-14.74c8.14,0,14.74,6.6,14.74,14.74C280.33,55.69,273.73,62.29,265.59,62.29z"/>
<path class="st0" d="M85.49,17.79c-8.9-0.45-17,3.02-22.73,8.83c-1.49,1.51-1.79,3.82-0.83,5.71c2.32,4.57,3.63,9.74,3.63,15.21
	c0,5.47-1.31,10.63-3.63,15.21c-0.96,1.9-0.65,4.21,0.85,5.72c5.4,5.47,12.89,8.85,21.18,8.85c17.09,0,30.81-14.39,29.73-31.71
	C112.75,30.65,100.47,18.54,85.49,17.79z M83.96,62.29c-8.14,0-14.74-6.6-14.74-14.74c0-8.14,6.6-14.74,14.74-14.74
	c8.14,0,14.74,6.6,14.74,14.74C98.71,55.69,92.11,62.29,83.96,62.29z"/>
<path class="st0" d="M117.93,40.85v35.06c0,0.78,0.63,1.42,1.42,1.42h12.21c0.78,0,1.42-0.63,1.42-1.42V32.63
	C128.86,36.61,123.69,39.5,117.93,40.85z"/>
<path class="st1" d="M132.97,29.23V19.17c0-0.78-0.63-1.42-1.42-1.42h-12.21c-0.78,0-1.42,0.63-1.42,1.42v19.27
	C123.85,36.93,129.06,33.66,132.97,29.23z"/>
<circle class="st1" cx="31.77" cy="47.54" r="11.02"/>
<path class="st0" d="M309.06,24.21c0,3.78-2.96,6.74-6.82,6.74c-3.82,0-6.86-2.96-6.86-6.74c0-3.7,3.05-6.66,6.86-6.66
	C306.1,17.54,309.06,20.51,309.06,24.21z M297.08,24.21c0,2.96,2.19,5.32,5.2,5.32c2.92,0,5.08-2.36,5.08-5.28
	c0-2.96-2.15-5.36-5.12-5.36C299.27,18.88,297.08,21.28,297.08,24.21z M301.18,27.7h-1.54v-6.66c0.61-0.12,1.46-0.2,2.56-0.2
	c1.26,0,1.83,0.2,2.32,0.49c0.37,0.28,0.65,0.81,0.65,1.46c0,0.73-0.57,1.3-1.38,1.54v0.08c0.65,0.24,1.02,0.73,1.22,1.62
	c0.2,1.02,0.32,1.42,0.49,1.67h-1.67c-0.2-0.24-0.32-0.85-0.53-1.62c-0.12-0.73-0.53-1.06-1.38-1.06h-0.73V27.7z M301.22,23.92h0.73
	c0.85,0,1.54-0.28,1.54-0.97c0-0.61-0.45-1.02-1.42-1.02c-0.41,0-0.69,0.04-0.85,0.08V23.92z"/>
<path class="st0" d="M170.27,16.11c6.51,0,11.89,2.18,16.14,6.55c4.25,4.37,6.37,10.4,6.37,18.11v35.15c0,0.78-0.63,1.42-1.42,1.42
	h-12.53c-0.78,0-1.42-0.63-1.42-1.42V42.67c0-3.97-1.07-7.01-3.22-9.11c-2.14-2.1-5-3.16-8.58-3.16c-3.97,0-7.15,1.23-9.53,3.69
	c-2.38,2.46-3.57,6.15-3.57,11.08v30.74c0,0.78-0.63,1.42-1.42,1.42h-12.53c-0.78,0-1.42-0.63-1.42-1.42V19.19
	c0-0.78,0.63-1.42,1.42-1.42h12.53c0.78,0,1.42,0.63,1.42,1.42v5.25C156.25,18.89,162.17,16.11,170.27,16.11z"/>
<path class="st0" d="M232.29,32.46h-11.92v24.56c0,2.05,0.51,3.54,1.53,4.49c1.02,0.94,2.52,1.48,4.49,1.59
	c1.63,0.1,3.57,0.1,5.85,0.01c0.8-0.03,1.47,0.61,1.47,1.41v11.05c0,0.73-0.55,1.34-1.28,1.41c-9.79,0.96-16.75-0.07-20.86-3.09
	c-4.29-3.15-6.43-8.77-6.43-16.88V32.46h-8.85c-0.78,0-1.42-0.63-1.42-1.42v-11.8c0-0.78,0.63-1.42,1.42-1.42h8.85V6.95
	c0-0.62,0.41-1.18,1.01-1.36l12.39-3.75c0.91-0.28,1.83,0.41,1.83,1.36v14.62h11.92c0.78,0,1.42,0.63,1.42,1.42v11.8
	C233.71,31.82,233.07,32.46,232.29,32.46z"/>
</svg>
